<svg width="26" height="23" fill="none" xmlns="http://www.w3.org/2000/svg"><g filter="url(#filter0_ii)"><path fill-rule="evenodd" clip-rule="evenodd" d="M0 1.414C0 .524 1.077.077 1.707.707l3.49 3.49c.309.309.78.378 1.178.197C8.315 3.508 10.58 3 13 3s4.685.508 6.625 1.394c.397.181.87.112 1.178-.197l3.49-3.49C24.923.077 26 .523 26 1.414V13c0 5.523-5.82 10-13 10S0 18.523 0 13V1.414z" fill="url(#paint0_radial)"/></g><defs><radialGradient id="paint0_radial" cx="0" cy="0" r="1" gradientUnits="userSpaceOnUse" gradientTransform="matrix(-.49999 -22.50005 20.2833 -.45073 13.5 13)"><stop stop-color="#FFECBC"/><stop offset="1" stop-color="#FFA800"/></radialGradient><filter id="filter0_ii" x="-1" y=".412" width="27" height="23.588" filterUnits="userSpaceOnUse" color-interpolation-filters="sRGB"><feFlood flood-opacity="0" result="BackgroundImageFix"/><feBlend in="SourceGraphic" in2="BackgroundImageFix" result="shape"/><feColorMatrix in="SourceAlpha" values="0 0 0 0 0 0 0 0 0 0 0 0 0 0 0 0 0 0 127 0" result="hardAlpha"/><feOffset/><feGaussianBlur stdDeviation="5"/><feComposite in2="hardAlpha" operator="arithmetic" k2="-1" k3="1"/><feColorMatrix values="0 0 0 0 1 0 0 0 0 0.69 0 0 0 0 0.225 0 0 0 0.4 0"/><feBlend in2="shape" result="effect1_innerShadow"/><feColorMatrix in="SourceAlpha" values="0 0 0 0 0 0 0 0 0 0 0 0 0 0 0 0 0 0 127 0" result="hardAlpha"/><feOffset dx="-1" dy="1"/><feGaussianBlur stdDeviation=".5"/><feComposite in2="hardAlpha" operator="arithmetic" k2="-1" k3="1"/><feColorMatrix values="0 0 0 0 1 0 0 0 0 1 0 0 0 0 1 0 0 0 0.5 0"/><feBlend in2="effect1_innerShadow" result="effect2_innerShadow"/></filter></defs></svg>