<svg xmlns="http://www.w3.org/2000/svg"><symbol id="button" viewBox="0 0 64 64"><path fill-rule="evenodd" clip-rule="evenodd" d="M32 62c16.569 0 30-13.431 30-30C62 15.431 48.569 2 32 2 15.431 2 2 15.431 2 32c0 16.569 13.431 30 30 30zm0 2c17.673 0 32-14.327 32-32C64 14.327 49.673 0 32 0 14.327 0 0 14.327 0 32c0 17.673 14.327 32 32 32zm27-32c0 14.912-12.088 27-27 27S5 46.912 5 32 17.088 5 32 5s27 12.088 27 27zm-33.94-4.06a1.5 1.5 0 00-2.12 2.12l8 8a1.5 1.5 0 002.12 0l8-8a1.5 1.5 0 00-2.12-2.12L32 34.878l-6.94-6.94z" fill="currentColor"/></symbol><symbol id="theme-light" viewBox="0 0 32 32"><rect width="32" height="32" rx="16" fill="currentColor"/><circle cx="16" cy="16" r="4" transform="rotate(15 16 16)" stroke="#FCFBF7" stroke-width="2" fill="currentColor"/><path d="M18.33 7.307l-.518 1.931m-3.624 13.524l-.517 1.931M23.794 11.5l-1.732 1m-12.124 7l-1.732 1M20.5 23.794l-1-1.732m-7-12.124l-1-1.732M24.693 18.33l-1.931-.518M9.239 14.188l-1.932-.517" stroke="#FCFBF7" stroke-width="2" stroke-linecap="round" stroke-linejoin="bevel"/></symbol><symbol id="theme-dark" viewBox="0 0 32 32"><rect width="32" height="32" rx="16" fill="currentColor"/><path d="M15.896 23c-2.842 0-5.729-1.936-6.846-4.5a.71.71 0 01.813-.974c2.749.65 4.834.205 6.348-1.307 1.514-1.512 1.96-3.597 1.314-6.346a.71.71 0 01.974-.812c2.564 1.12 4.496 4.009 4.493 6.851A7.098 7.098 0 0115.896 23z" stroke="#FCFBF7" stroke-width="2" fill="currentColor"/></symbol><symbol id="nav" viewBox="0 0 32 32"><rect width="32" height="32" rx="16" fill="currentColor"/><path fill-rule="evenodd" clip-rule="evenodd" d="M23.596 17.058a1.495 1.495 0 000-2.116L17.962 9.3c-.39-.39-1.03-.39-1.42 0a.996.996 0 000 1.41l2.717 2.717a9.993 9.993 0 001.768 1.406l.342.214-.208.207a10 10 0 00-2.24-.254H9a1 1 0 000 2h9.922a10 10 0 002.24-.254l.207.207-.342.214c-.641.4-1.233.872-1.768 1.406l-2.716 2.717a.996.996 0 000 1.41c.39.39 1.03.39 1.42 0l5.633-5.642z" fill="#FCFBF7"/></symbol><symbol id="restart" viewBox="0 0 32 32"><rect width="32" height="32" rx="16" fill="currentColor"/><path fill-rule="evenodd" clip-rule="evenodd" d="M22.173 13.64a.6.6 0 00.558-.82l-1.49-3.765a.6.6 0 00-1.054-.116l-.68 1.002a7 7 0 102.908 8.861 1 1 0 10-1.831-.8A5.001 5.001 0 0111 16a5 5 0 017.382-4.398l-.747 1.101a.6.6 0 00.497.937h4.041z" fill="#FCFBF7"/></symbol></svg>